<?xml version="1.0" standalone="no"?>
<!DOCTYPE svg PUBLIC "-//W3C//DTD SVG 20010904//EN"
 "http://www.w3.org/TR/2001/REC-SVG-20010904/DTD/svg10.dtd">
<svg version="1.0" xmlns="http://www.w3.org/2000/svg"
 width="218.000000pt" height="218.000000pt" viewBox="0 0 218.000000 218.000000"
 preserveAspectRatio="xMidYMid meet">
<metadata>
Created by potrace 1.11, written by Peter Selinger 2001-2013
</metadata>
<g transform="translate(0.000000,218.000000) scale(0.100000,-0.100000)"
fill="#000000" stroke="none">
<path d="M61 2009 c-18 -11 -38 -32 -44 -48 -14 -34 -17 -1699 -3 -1741 12
-35 53 -67 90 -72 17 -2 472 -3 1011 -3 l981 0 31 25 c18 14 35 34 39 45 5 11
9 400 9 865 1 660 -1 852 -11 877 -7 18 -27 41 -45 52 -31 19 -58 20 -1029 19
-967 0 -999 0 -1029 -19z"/>
</g>
</svg>
